HIERARCHY
ROOT Hips
{
  OFFSET 40.9192 92.6879 18.85
  CHANNELS 6 Xposition Yposition Zposition Zrotation Xrotation Yrotation
  JOINT LeftUpLeg
  {
    OFFSET 8.64259 1.95398 -2.38835
    CHANNELS 3 Zrotation Xrotation Yrotation
    JOINT LeftLeg
    {
      OFFSET 43.7702 0 0
      CHANNELS 3 Zrotation Xrotation Yrotation
      JOINT LeftFoot
      {
        OFFSET 40.6238 0 0
        CHANNELS 3 Zrotation Xrotation Yrotation
        JOINT LeftToeBase
        {
          OFFSET 12.7242 0 0
          CHANNELS 3 Zrotation Xrotation Yrotation
          End Site
          {
            OFFSET 0 0 0
          }
        }
      }
    }
  }
  JOINT RightUpLeg
  {
    OFFSET -8.2249 1.95398 -2.59336
    CHANNELS 3 Zrotation Xrotation Yrotation
    JOINT RightLeg
    {
      OFFSET 43.5653 0 0
      CHANNELS 3 Zrotation Xrotation Yrotation
      JOINT RightFoot
      {
        OFFSET 40.6238 0 0
        CHANNELS 3 Zrotation Xrotation Yrotation
        JOINT RightToeBase
        {
          OFFSET 12.7242 0 0
          CHANNELS 3 Zrotation Xrotation Yrotation
          End Site
          {
            OFFSET 0 0 0
          }
        }
      }
    }
  }
  JOINT Spine
  {
    OFFSET 0.165834 0.87714 6.61349
    CHANNELS 3 Zrotation Xrotation Yrotation
    JOINT Spine1
    {
      OFFSET 7.38963 1.71661e-005 0
      CHANNELS 3 Zrotation Xrotation Yrotation
      JOINT Spine2
      {
        OFFSET 11.9445 1.14441e-005 0
        CHANNELS 3 Zrotation Xrotation Yrotation
        JOINT Spine3
        {
          OFFSET 14.7254 4.19617e-005 0
          CHANNELS 3 Zrotation Xrotation Yrotation
          JOINT Spine4
          {
            OFFSET 10.9679 0 0
            CHANNELS 3 Zrotation Xrotation Yrotation
            JOINT RightShoulder
            {
              OFFSET 2.46616 -1.6653 3.69651
              CHANNELS 3 Zrotation Xrotation Yrotation
              JOINT RightArm
              {
                OFFSET 13.0012 0 0
                CHANNELS 3 Zrotation Xrotation Yrotation
                JOINT RightForeArm
                {
                  OFFSET 28.7848 1.52588e-005 0
                  CHANNELS 3 Zrotation Xrotation Yrotation
                  JOINT RightHand
                  {
                    OFFSET 26.5688 1.52588e-005 0
                    CHANNELS 3 Zrotation Xrotation Yrotation
                    End Site
                    {
                      OFFSET 0 0 0
                    }
                  }
                }
              }
            }
            JOINT LeftShoulder
            {
              OFFSET 2.38034 -1.29275 -3.7523
              CHANNELS 3 Zrotation Xrotation Yrotation
              JOINT LeftArm
              {
                OFFSET 16.3182 6.10351e-005 0
                CHANNELS 3 Zrotation Xrotation Yrotation
                JOINT LeftForeArm
                {
                  OFFSET 27.0901 0 0
                  CHANNELS 3 Zrotation Xrotation Yrotation
                  JOINT LeftHand
                  {
                    OFFSET 24.5451 1.52588e-005 0
                    CHANNELS 3 Zrotation Xrotation Yrotation
                    End Site
                    {
                      OFFSET 0 0 0
                    }
                  }
                }
              }
            }
            JOINT Neck
            {
              OFFSET 5.0226 -0.0266342 0
              CHANNELS 3 Zrotation Xrotation Yrotation
              JOINT Head
              {
                OFFSET 6.69363 2.86102e-005 0
                CHANNELS 3 Zrotation Xrotation Yrotation
                End Site
                {
                  OFFSET 0 0 0
                }
              }
            }
          }
        }
      }
    }
  }
}
MOTION
Frames:	6
Frame Time:	0.0416667
-293.76 88.9351 -294.256 72.9522 -53.33 71.5511 -163.719 47.5989 87.75 -68.8525 -76.5503 -6.26618 70.2262 -0.80914 -117.385 17.6399 -22.2708 36.7807 111.576 27.2389 135.821 1.32668 -8.93877 8.57485 -0.0431928 14.7359 32.1392 -1.94355 5.06569 -19.2737 1.51621 4.74847 -90.9399 17.4042 2.49755 -2.35564 5.73329 2.3915 -2.46326 -16.8129 3.08992 -1.49594 3.1997 3.08994 -1.49594 128.324 -55.2267 -44.4663 3.6514 -49.1658 22.3508 -161.759 -31.3143 -47.3019 -8.75749 0.615282 90.7925 -90.9214 -68.2697 80.9354 -43.6554 20.3708 71.9353 8.52775 8.44221 -63.1117 26.5364 0.778081 -1.00109 -8.82511 -0.264782 28.6609 -5.57325 -1.23739 -13.9332 
-289.475 90.183 -288.915 67.7428 -56.0586 66.2909 -159.883 45.3935 85.7607 -68.8193 -32.0495 -2.12395 70.1354 -9.96401 -63.2232 24.8191 -8.5389 25.6621 87.3347 9.62348 126.938 -1.16793 -31.7368 37.8205 2.0117 18.0206 24.1281 -3.00255 6.33135 -22.3944 1.35726 5.99322 -90.336 14.8999 2.5168 -1.06445 3.23083 2.46752 -1.17424 -19.3232 2.7203 -0.258332 0.689401 2.72029 -0.258333 99.1055 -53.8992 -86.386 18.4288 -28.1336 22.3681 -167.766 -29.2831 -52.938 -8.71391 2.98252 94.807 -90.7 -63.4899 80.3518 -42.5326 17.0791 62.6745 9.66423 4.42668 -68.174 22.8122 1.28232 1.74326 -9.71461 -0.31377 20.7967 9.87581 -1.68449 -7.59206 
-284.665 91.3481 -282.734 62.4428 -53.0086 66.4351 -160.408 52.8763 86.0692 -61.9391 23.1287 -3.59232 51.0043 -2.04237 9.40545 45.0041 14.8658 14.5585 60.6809 2.71321 117.95 -7.87847 -55.7646 52.9876 7.2428 18.8444 21.8059 -2.62037 6.97315 -24.4196 1.6264 6.73731 -89.917 13.4113 3.26782 -0.23678 1.7444 3.25423 -0.380532 -20.8228 3.18775 0.757305 -0.810125 3.18776 0.757308 96.1267 -48.5155 -91.586 25.9379 -22.8563 7.50346 -171.118 -34.6432 -61.4766 -8.21038 4.42646 100.168 -92.0257 -51.0746 75.9809 -46.4095 18.0001 57.1006 8.97306 1.85954 -70.9364 22.368 1.13212 1.21409 3.23384 -1.17165 4.20911 8.17997 -1.62901 2.05868 
-278.518 95.7648 -277.523 66.2624 -53.6041 68.6331 -161.975 44.8406 85.6901 -39.504 21.3368 -4.2115 48.2965 -5.54196 1.94817 43.4396 13.4825 16.8672 45.1843 14.3838 118.303 81.6695 -76.2171 154.796 19.005 15.0759 10.0979 0.949103 4.94207 -20.0016 1.85119 7.643 -89.5847 11.5855 3.8769 0.426302 -0.0797238 3.89192 0.255 -22.6552 3.56934 1.57319 -2.64256 3.56934 1.57319 95.5482 -39.7233 -93.7743 33.1909 -21.8623 1.05447 -171.704 -37.9358 -67.9672 -6.20928 6.67745 96.9684 -92.7421 -44.2476 73.0615 -49.3449 15.1628 53.0432 6.9046 -0.214754 -71.9401 18.9195 0.708749 -0.160305 8.70635 -2.46671 2.653 8.03729 -2.68598 2.00882 
-271.395 97.3908 -270.998 66.9144 -52.4206 69.6559 -162.774 40.1618 84.984 -26.0082 19.3484 -4.31022 47.8434 -5.60298 1.18583 45.5036 15.3043 15.0133 69.8364 38.1229 132.056 175.13 -74.1912 -98.6647 48.614 -13.0053 -20.6013 8.31774 2.76445 -15.3706 1.93921 7.87337 -89.4424 11.1193 4.11885 0.709807 -0.54524 4.14613 0.527527 -23.1234 3.71486 1.91642 -3.1108 3.71488 1.91642 96.448 -36.0409 -92.7373 36.3821 -22.7739 -0.669004 -172.371 -38.28 -74.5638 -3.96948 7.95434 91.4585 -92.5422 -39.0379 71.7896 -52.1402 12.8387 50.0638 5.32256 -1.43839 -72.9959 19.5446 0.293899 -2.38468 8.92986 -3.49491 0.535507 9.81625 -3.14189 2.92224 
-264.899 97.7959 -264.92 67.5755 -51.2768 72.8259 -162.848 37.6918 85.6161 -20.0454 18.0333 -3.88761 46.6676 -6.37819 1.23161 46.4041 16.5317 16.7809 162.905 50.5013 93.1141 -90.7426 -34.5444 -3.90915 95.7126 -23.9383 -7.96553 10.8366 2.04291 -13.1907 1.80368 7.74138 -89.5776 11.3881 3.78612 0.459879 -0.277382 3.80266 0.292565 -22.8505 3.47266 1.57781 -2.83789 3.47263 1.57779 96.3633 -36.6611 -92.796 36.5281 -24.9357 2.19888 -176.807 -35.8096 -83.3836 -3.60943 8.55203 93.826 -91.394 -38.5844 73.5821 -50.8633 10.3541 48.368 7.42089 -1.40594 -75.3299 19.4672 0.621258 -0.696033 6.91534 -3.23449 -1.28559 11.2015 -2.49396 3.20517 
